<svg width="146" height="60" viewBox="0 0 146 60" fill="none" xmlns="http://www.w3.org/2000/svg">
<g clip-path="url(#clip0_1_2)">
<rect width="146" height="60" fill="white"/>
<path d="M0 18.4L0.528 12.88H23.328L22.8 18.4L14.448 17.68L14.256 33.52L14.832 46H8.112L8.688 34.336L8.496 17.728L0 18.4ZM37.5518 40H38.1278L40.5278 31.744L45.5678 12.592L51.3758 13.456L45.6638 32.512L41.9198 45.616L33.0398 46.24L29.6318 33.424L24.0638 13.792L30.8798 12.592L35.2478 31.12L37.5518 40ZM73.5484 46.528C69.9964 46.528 67.0044 45.04 64.5724 42.064C62.1404 39.088 60.9244 35.44 60.9244 31.12C60.9244 25.84 62.3804 21.392 65.2924 17.776C68.2364 14.16 71.8364 12.352 76.0924 12.352C77.7564 12.352 79.2924 12.528 80.7004 12.88C82.1404 13.2 83.1644 13.536 83.7724 13.888L84.6364 14.416L81.3724 21.088C80.6364 20.448 79.5964 19.856 78.2524 19.312C76.9084 18.736 75.6924 18.448 74.6044 18.448C72.3964 18.448 70.6204 19.36 69.2764 21.184C67.9644 23.008 67.3084 25.616 67.3084 29.008C67.3084 32.368 67.9964 35.136 69.3724 37.312C70.7484 39.456 72.6204 40.528 74.9884 40.528C76.5244 40.528 77.9164 40.048 79.1644 39.088C80.4124 38.128 81.2924 36.848 81.8044 35.248L85.7884 37.552C84.7324 40.368 83.1164 42.576 80.9404 44.176C78.7644 45.744 76.3004 46.528 73.5484 46.528ZM93.5059 46C91.6179 46 90.0659 45.408 88.8499 44.224C87.6659 43.008 87.0739 41.392 87.0739 39.376C87.0739 37.328 88.0019 35.568 89.8579 34.096C91.7139 32.592 93.9699 31.84 96.6259 31.84H99.8899V31.024C99.8899 29.456 99.5699 28.384 98.9299 27.808C98.2899 27.232 97.0899 26.944 95.3299 26.944C94.5939 26.944 93.7139 27.104 92.6899 27.424C91.6979 27.712 90.5779 28.176 89.3299 28.816L87.9379 25.024C89.3139 24.064 90.9779 23.2 92.9299 22.432C94.9139 21.664 96.5459 21.28 97.8259 21.28C102.85 21.28 105.362 23.712 105.362 28.576V37.984C105.362 39.776 105.922 41.776 107.042 43.984L101.954 46.144C101.154 44.608 100.562 43.232 100.178 42.016C98.4179 44.672 96.1939 46 93.5059 46ZM95.5219 41.104C96.8019 41.104 98.2579 40.448 99.8899 39.136V35.92C98.1939 35.536 96.8179 35.344 95.7619 35.344C93.7459 35.344 92.7379 36.24 92.7379 38.032C92.7379 38.96 92.9939 39.712 93.5059 40.288C94.0179 40.832 94.6899 41.104 95.5219 41.104ZM113.078 22.768V17.536L119.558 16.288L118.934 22.768H124.742L124.214 26.704H118.742L118.502 36.736C118.502 38.24 118.646 39.248 118.934 39.76C119.222 40.24 119.75 40.48 120.518 40.48C121.286 40.48 122.31 40.304 123.59 39.952L123.878 43.36C121.766 45.12 119.91 46 118.31 46C116.71 46 115.398 45.424 114.374 44.272C113.35 43.088 112.838 41.552 112.838 39.664L113.126 34.288L113.078 26.704H109.766L110.294 22.768H113.078ZM135.516 41.536C137.18 41.536 138.012 40.8 138.012 39.328C138.012 38.816 137.644 38.336 136.908 37.888C136.204 37.44 135.324 36.992 134.268 36.544C133.244 36.096 132.204 35.6 131.148 35.056C130.124 34.48 129.244 33.696 128.508 32.704C127.804 31.712 127.452 30.576 127.452 29.296C127.452 27.152 128.396 25.28 130.284 23.68C132.172 22.08 134.348 21.28 136.812 21.28C137.964 21.28 139.084 21.424 140.172 21.712C141.292 21.968 142.364 22.384 143.388 22.96L140.172 28.816C139.948 28.624 139.66 28.384 139.308 28.096C138.956 27.808 138.284 27.44 137.292 26.992C136.332 26.512 135.468 26.272 134.7 26.272C133.964 26.272 133.388 26.448 132.972 26.8C132.588 27.12 132.396 27.584 132.396 28.192C132.396 28.768 132.94 29.36 134.028 29.968C135.148 30.544 136.364 31.088 137.676 31.6C138.988 32.08 140.188 32.896 141.276 34.048C142.396 35.168 142.956 36.512 142.956 38.08C142.956 40.32 142.028 42.288 140.172 43.984C138.348 45.68 136.236 46.528 133.836 46.528C132.3 46.528 130.86 46.192 129.516 45.52C128.204 44.848 127.26 44.176 126.684 43.504L125.82 42.496L129.612 38.08C129.804 38.336 130.076 38.656 130.428 39.04C130.78 39.424 131.468 39.936 132.492 40.576C133.548 41.216 134.556 41.536 135.516 41.536Z" fill="black"/>
</g>
<defs>
<clipPath id="clip0_1_2">
<rect width="146" height="60" fill="white"/>
</clipPath>
</defs>
</svg>
